<?xml version="1.0" standalone="no"?>
<!DOCTYPE svg PUBLIC "-//W3C//DTD SVG 20010904//EN"
 "http://www.w3.org/TR/2001/REC-SVG-20010904/DTD/svg10.dtd">
<svg version="1.0" xmlns="http://www.w3.org/2000/svg"
 width="500.000000pt" height="500.000000pt" viewBox="0 0 500.000000 500.000000"
 preserveAspectRatio="xMidYMid meet">

<g transform="translate(0.000000,500.000000) scale(0.100000,-0.100000)"
fill="#000000" stroke="none">
<path d="M0 2500 l0 -2500 2500 0 2500 0 0 2500 0 2500 -2500 0 -2500 0 0
-2500z m2447 1284 c3 -8 1 -20 -6 -27 -7 -7 -11 -52 -11 -118 l0 -108 398 -3
397 -3 50 -27 c63 -33 98 -70 125 -132 54 -121 7 -265 -108 -333 -46 -28 -50
-28 -252 -33 l-205 -5 -3 -47 c-2 -29 1 -48 7 -48 6 0 11 -11 11 -25 0 -20 -5
-25 -25 -25 -20 0 -25 5 -25 25 0 14 5 25 10 25 6 0 10 25 10 55 l0 55 186 0
c214 0 246 7 310 63 65 57 88 107 88 187 -1 97 -49 175 -139 223 -39 21 -52
22 -447 25 l-408 3 0 114 c0 65 -4 116 -10 120 -5 3 -10 17 -10 31 0 19 5 24
25 24 14 0 28 -7 32 -16z m93 -39 c10 -12 9 -20 -4 -40 -11 -17 -16 -41 -14
-68 l3 -42 365 -5 c358 -5 366 -5 412 -29 63 -31 121 -88 155 -153 25 -47 28
-63 28 -148 0 -84 -3 -101 -27 -145 -32 -60 -97 -125 -158 -156 -40 -21 -62
-24 -190 -27 -80 -2 -149 -8 -154 -13 -6 -5 -20 -9 -33 -9 -18 0 -23 6 -23 25
0 20 5 25 25 25 14 0 25 -5 25 -11 0 -8 42 -10 143 -7 116 3 150 8 188 25 173
78 242 279 153 443 -34 63 -81 105 -154 139 l-55 26 -357 3 -358 4 0 51 c0 29
-7 60 -15 71 -27 36 16 76 45 41z m-210 -159 c0 -24 -27 -39 -49 -27 -12 7
-111 11 -269 11 l-249 0 -61 -30 c-95 -48 -153 -127 -173 -236 -24 -131 59
-279 189 -336 56 -25 184 -36 217 -18 28 15 55 7 55 -15 0 -21 -27 -30 -53
-17 -12 6 -60 13 -107 15 -63 3 -97 9 -130 26 -61 31 -126 95 -158 156 -24 44
-27 61 -27 145 0 85 3 101 28 148 34 65 93 123 155 154 45 22 59 23 301 26
198 2 258 6 274 17 23 16 57 4 57 -19z m-434 -46 c5 -5 98 -11 214 -12 l205
-3 3 -32 3 -33 427 0 c267 0 441 -4 465 -11 69 -19 128 -85 142 -160 16 -85
-54 -194 -140 -218 -24 -6 -134 -11 -277 -11 l-238 0 0 -215 c0 -137 -4 -215
-10 -215 -6 0 -10 82 -10 225 l0 225 258 0 c229 0 262 2 298 19 135 61 136
255 2 320 -43 20 -56 21 -491 21 l-447 0 0 35 0 35 -200 0 c-127 0 -200 -4
-200 -10 0 -17 -47 -11 -54 6 -12 31 27 57 50 34z m172 -88 c4 -27 -23 -40
-49 -24 -11 7 -60 12 -116 12 -78 0 -105 -4 -141 -21 -132 -65 -133 -252 -1
-319 36 -19 56 -20 256 -18 l218 3 3 50 c2 28 1 87 -3 133 l-7 82 -195 0
c-196 0 -223 -4 -250 -39 -16 -20 -17 -73 -2 -88 18 -18 2 -45 -23 -41 -15 2
-24 11 -26 26 -2 12 1 22 6 22 5 0 12 19 15 42 3 26 15 51 31 67 l26 26 218 0
217 0 3 -152 3 -153 -213 0 c-118 0 -230 5 -251 11 -43 12 -102 59 -121 98
-40 79 -26 164 38 227 51 51 93 64 213 64 54 0 95 4 98 11 12 18 50 6 53 -19z
m1006 -68 c21 -8 21 -43 0 -51 -9 -3 -25 -1 -35 5 -13 9 -121 12 -369 12
l-350 0 0 -135 0 -135 40 0 40 0 0 -225 c0 -143 -4 -225 -10 -225 -6 0 -10 78
-10 214 l0 215 -37 3 -38 3 0 150 0 150 365 3 c223 1 368 6 374 12 12 12 10
12 30 4z m-101 -98 c3 -8 -1 -22 -8 -33 -12 -15 -17 -16 -34 -5 -15 9 -88 12
-271 12 l-250 0 0 -50 0 -50 395 0 395 0 17 26 c16 25 16 27 -2 40 -10 8 -23
14 -28 14 -17 0 -2 45 17 48 24 5 32 -10 34 -63 2 -36 -2 -47 -24 -64 -26 -20
-37 -21 -420 -21 l-394 0 0 70 0 70 260 0 c167 0 260 4 260 10 0 15 47 12 53
-4z m-803 -76 l0 -70 -155 0 -155 0 0 70 0 70 155 0 155 0 0 -70z m-561 33 c6
-11 6 -24 0 -35 -7 -13 -4 -29 10 -55 28 -56 65 -91 123 -118 47 -22 67 -25
176 -25 l122 0 0 -115 c0 -70 4 -115 10 -115 16 0 11 -40 -6 -47 -8 -3 -23 1
-32 10 -14 15 -14 18 2 35 14 16 16 36 14 118 l-3 99 -135 5 c-125 5 -139 7
-182 33 -52 30 -89 73 -113 130 -8 20 -20 37 -25 37 -15 0 -12 47 3 53 21 9
26 8 36 -10z m979 -390 l-3 -228 -2 218 -3 217 -55 0 -55 0 -3 -217 -2 -218
-3 228 -2 227 65 0 65 0 -2 -227z m-463 167 c3 -6 48 -10 101 -10 l94 0 0
-190 c0 -120 -4 -190 -10 -190 -6 0 -10 68 -10 185 l0 185 -82 0 c-62 0 -86
-4 -100 -17 -17 -15 -20 -15 -35 -1 -9 9 -13 24 -10 32 7 18 42 22 52 6z m72
-106 c3 -9 1 -25 -5 -35 -7 -11 -13 -68 -14 -136 l-2 -118 -3 115 c-2 63 -8
125 -14 137 -7 12 -9 29 -6 37 8 21 36 20 44 0z m70 -130 c3 -8 1 -20 -6 -27
-6 -6 -12 -38 -13 -71 l-2 -61 -3 59 c-2 32 -10 65 -18 73 -8 7 -12 20 -9 28
8 20 43 19 51 -1z m721 -8 c5 -24 -17 -37 -39 -25 -10 5 -56 9 -103 9 l-85 0
-4 -67 -3 -68 -2 78 -2 77 94 0 c56 0 98 4 101 11 10 16 39 6 43 -15z m-142
-87 c3 -6 1 -22 -6 -35 -13 -24 -13 -24 -28 -3 -7 11 -11 26 -8 34 6 18 32 20
42 4z m-1396 -957 l65 -87 3 88 3 87 34 0 35 0 0 -145 0 -145 -35 0 c-32 0
-40 7 -97 85 -35 46 -66 84 -70 85 -5 0 -8 -38 -8 -85 l0 -85 -33 0 -33 0 -2
145 -2 145 38 0 c35 -1 41 -6 102 -88z m262 -13 c2 -86 6 -103 22 -115 25 -18
57 -18 81 0 16 12 20 30 23 115 l4 101 34 0 34 0 0 -96 c0 -145 -34 -194 -135
-194 -103 0 -135 45 -135 195 l0 95 34 0 34 0 4 -101z m330 42 l3 -59 50 59
c46 53 53 58 93 58 l44 1 -52 -60 -51 -59 49 -73 c26 -40 52 -79 56 -85 5 -10
-4 -13 -36 -13 -40 0 -45 3 -73 47 -16 25 -33 51 -37 57 -14 21 -48 -25 -48
-66 0 -38 0 -38 -40 -38 l-40 0 0 145 0 145 40 0 39 0 3 -59z m469 -84 c32
-77 59 -141 59 -143 0 -2 -18 -4 -40 -4 -34 0 -41 4 -46 25 -6 24 -10 25 -73
25 -63 0 -69 -2 -79 -25 -9 -20 -19 -25 -47 -25 -19 0 -35 2 -35 4 0 2 23 58
51 123 28 65 55 128 60 141 8 20 15 23 50 20 l41 -3 59 -138z m207 63 c20 -44
40 -80 43 -80 3 0 22 36 42 80 l36 80 41 0 40 0 0 -145 0 -145 -30 0 -30 0 0
92 c0 51 -4 88 -8 83 -5 -6 -22 -40 -38 -77 -24 -58 -32 -68 -54 -68 -22 0
-29 10 -55 73 l-30 72 -3 -87 -3 -88 -34 0 -35 0 0 145 0 145 41 0 41 0 36
-80z m499 -65 l61 -145 -39 0 c-33 0 -41 4 -49 25 -9 23 -14 25 -79 25 -65 0
-69 -1 -75 -25 -5 -21 -12 -25 -46 -25 l-39 0 33 78 c18 42 46 107 62 144 29
68 29 68 69 68 l41 0 61 -145z m319 112 c33 -39 33 -95 -2 -136 l-25 -30 31
-46 31 -45 -44 0 c-42 0 -45 2 -62 40 -16 35 -22 40 -52 40 -32 0 -33 -1 -33
-40 0 -39 -1 -40 -35 -40 l-35 0 0 146 0 146 101 -4 c96 -3 102 -4 125 -31z
m144 -112 l0 -145 -35 0 -35 0 0 145 0 145 35 0 35 0 0 -145z m-2156 -326 c57
-45 21 -119 -59 -119 l-45 0 0 63 c0 35 3 67 7 70 14 14 71 6 97 -14z m146
-49 c0 -40 -4 -70 -10 -70 -6 0 -10 30 -10 70 0 40 4 70 10 70 6 0 10 -30 10
-70z m211 59 c27 -14 14 -31 -15 -19 -54 20 -94 -58 -42 -82 31 -14 56 -4 56
22 0 11 5 20 10 20 6 0 10 -13 10 -30 0 -23 -5 -31 -24 -36 -39 -9 -68 -1 -89
27 -43 58 29 133 94 98z m149 -59 c0 -40 -4 -70 -10 -70 -6 0 -10 30 -10 70 0
40 4 70 10 70 6 0 10 -30 10 -70z m200 55 c0 -8 -9 -15 -20 -15 -18 0 -20 -7
-20 -55 0 -30 -4 -55 -10 -55 -5 0 -10 25 -10 55 0 48 -3 55 -19 55 -21 0 -34
13 -24 24 3 3 28 6 55 6 36 0 48 -4 48 -15z m195 -50 c27 -63 27 -99 1 -62
-16 21 -74 23 -82 2 -4 -8 -12 -15 -19 -15 -10 0 -5 20 17 70 17 39 36 70 43
70 7 0 25 -29 40 -65z m145 5 l0 -60 30 0 c17 0 30 -4 30 -10 0 -5 -18 -10
-40 -10 l-40 0 0 70 c0 40 4 70 10 70 6 0 10 -27 10 -60z m373 45 c-1 -5 -11
-11 -23 -13 -17 -3 -20 -11 -20 -58 0 -30 -4 -54 -10 -54 -5 0 -10 25 -10 55
0 48 -2 55 -20 55 -11 0 -20 7 -20 16 0 12 10 14 53 12 28 -2 51 -7 50 -13z
m197 0 c0 -10 -11 -15 -35 -15 -24 0 -35 -5 -35 -15 0 -10 10 -15 30 -15 17 0
30 -4 30 -10 0 -5 -13 -10 -30 -10 -23 0 -30 -4 -30 -20 0 -16 7 -20 35 -20
19 0 35 -4 35 -10 0 -5 -22 -10 -50 -10 l-50 0 0 70 0 70 50 0 c38 0 50 -4 50
-15z m201 4 c27 -14 14 -31 -15 -19 -51 19 -93 -55 -45 -81 15 -8 28 -8 44 -1
27 12 40 5 24 -15 -20 -24 -75 -16 -99 14 -47 60 22 139 91 102z m139 -19 c0
-28 3 -30 35 -30 32 0 35 2 35 30 0 20 5 30 15 30 12 0 15 -14 15 -70 0 -56
-3 -70 -15 -70 -10 0 -15 10 -15 31 0 28 -2 30 -32 27 -28 -2 -34 -8 -36 -30
-7 -56 -22 -26 -22 42 0 40 4 70 10 70 6 0 10 -13 10 -30z"/>
<path d="M1870 3210 l0 -50 145 0 145 0 0 50 0 50 -145 0 -145 0 0 -50z"/>
<path d="M2386 1697 c-9 -23 -16 -46 -16 -50 0 -4 18 -7 40 -7 22 0 40 2 40 4
0 9 -39 96 -43 96 -2 0 -12 -19 -21 -43z"/>
<path d="M3101 1718 c-34 -84 -35 -78 9 -78 46 0 48 7 21 65 l-19 40 -11 -27z"/>
<path d="M3387 1763 c-4 -3 -7 -26 -7 -50 l0 -43 39 0 c65 0 95 52 49 84 -23
16 -69 21 -81 9z"/>
<path d="M1450 1295 c0 -41 2 -45 23 -45 13 0 32 9 42 20 27 30 7 70 -35 70
-29 0 -30 -2 -30 -45z"/>
<path d="M2372 1310 c-10 -26 -3 -34 22 -28 13 3 13 7 1 28 l-14 25 -9 -25z"/>
</g>
</svg>
